<svg width="40" height="40" viewBox="0 0 40 40" fill="none" xmlns="http://www.w3.org/2000/svg">
<rect x="0.555556" y="0.555556" width="38.8889" height="38.8889" rx="10.5556" fill="url(#paint0_linear_17408_48761)"/>
<rect x="0.555556" y="0.555556" width="38.8889" height="38.8889" rx="10.5556" stroke="#18191B" stroke-width="1.11111"/>
<path d="M26.9955 34.3009C28.3654 28.6691 29.5984 23.1669 29.6428 17.7806C29.6858 12.4425 28.5014 10.7349 27.6074 9.91391C27.4234 9.74471 27.2247 9.59578 27.0169 9.46937C26.2916 9.02826 25.4283 8.84124 24.377 8.89782C22.016 9.02459 18.5547 10.5642 14.3669 13.3511C10.0109 16.2496 6.32855 19.4971 5.30412 20.4239C5.27487 20.4506 5.22782 20.491 5.16951 20.5421C4.99322 20.6957 4.83992 20.8329 4.71496 20.9487C4.67792 20.9824 4.67491 21.039 4.70776 21.0812C4.71712 21.0928 4.72753 21.1026 4.74036 21.1104C4.772 21.1296 4.81081 21.1334 4.84496 21.1179C5.09157 21.0047 5.35037 20.8697 5.60106 20.7402C5.88523 20.5926 6.17732 20.4415 6.4408 20.3257C8.59459 19.3816 11.4225 18.2358 14.1886 17.7448C17.2607 17.199 19.3779 17.4106 21.056 18.4312C22.4937 19.3056 23.4808 20.2755 24.2562 21.5776C25.0942 22.9845 25.6994 24.8193 26.1593 27.3531C26.5764 29.6502 26.6834 31.9974 26.787 34.2676C26.7884 34.3036 26.8103 34.3368 26.842 34.3561C26.8548 34.3639 26.8692 34.3691 26.8843 34.3713C26.9375 34.3802 26.9861 34.3489 26.9983 34.3002L26.9955 34.3009Z" fill="white"/>
<path d="M23.1748 31.2401C23.1335 28.7972 23.0355 23.0762 19.8624 21.1464C19.7957 21.1058 19.7262 21.0659 19.6569 21.0296C18.1335 20.2165 16.0754 20.1976 13.5377 20.9749C11.5218 21.5923 9.78221 22.5368 9.03966 22.9402C8.90574 23.0132 8.80773 23.0659 8.75046 23.0942C8.70544 23.116 8.68666 23.1677 8.70554 23.2154C8.71481 23.2386 8.73202 23.2584 8.75254 23.2709C8.77307 23.2834 8.80034 23.2906 8.82718 23.2871C8.85762 23.2834 8.88926 23.2816 8.92227 23.2794C8.97969 23.2757 9.03797 23.2726 9.0972 23.2583C13.8754 22.1254 16.297 23.0379 17.8723 23.9598C17.8937 23.9728 17.9151 23.9858 17.9365 23.9988C20.4946 25.5547 22.2727 30.0645 22.8564 31.5471C22.9106 31.683 22.9527 31.7905 22.9829 31.8638C22.9927 31.8861 23.0091 31.9055 23.0287 31.9174C23.051 31.9309 23.0774 31.9376 23.1034 31.9336C23.1534 31.9266 23.1888 31.8861 23.1876 31.8363C23.182 31.6749 23.1784 31.4739 23.1743 31.241L23.1748 31.2401Z" fill="white"/>
<defs>
<linearGradient id="paint0_linear_17408_48761" x1="20" y1="0" x2="20" y2="40" gradientUnits="userSpaceOnUse">
<stop stop-color="#18191B"/>
<stop offset="1" stop-color="#414243"/>
</linearGradient>
</defs>
</svg>
